<svg width="483" height="114" viewBox="0 0 483 114" fill="none" xmlns="http://www.w3.org/2000/svg">
<g clip-path="url(#clip0)">
<path d="M144 91.3865V17H161.871V46.7546H198.804V17H216.674V91.3865H198.804V63.4172H161.871V91.3865H144Z" fill="#FFF"/>
<path d="M228.616 67.5828V30.6871H245.296V65.2024C245.296 69.6458 246.368 73.0577 248.512 75.438C250.736 77.7391 253.834 78.8896 257.805 78.8896C261.776 78.8896 265.152 77.382 267.932 74.3669C270.712 71.3517 272.102 67.5035 272.102 62.8221V30.6871H288.781V91.3865H272.102V83.0552H271.506C270.553 84.8802 269.084 86.5861 267.098 88.173C262.809 91.5055 257.924 93.1718 252.444 93.1718C244.898 93.1718 239.021 90.9898 234.811 86.6258C230.681 82.2617 228.616 75.9141 228.616 67.5828Z" fill="#FFF"/>
<path d="M295.362 71.7485H312.637C313.193 73.1767 314.066 74.4859 315.258 75.6761C317.799 78.2151 321.294 79.4847 325.742 79.4847C332.493 79.4847 335.869 77.501 335.869 73.5337C335.869 72.899 335.71 72.3436 335.392 71.8675C335.074 71.3121 334.518 70.836 333.724 70.4393C332.93 69.9632 332.175 69.5665 331.461 69.2491C330.746 68.9317 329.673 68.6143 328.244 68.2969C326.894 67.9002 325.782 67.6225 324.908 67.4638C324.114 67.3051 322.803 67.0274 320.976 66.6307C319.229 66.2339 317.958 65.9562 317.164 65.7975C304.615 63.0998 298.34 56.9505 298.34 47.3497C298.34 42.2716 300.604 37.9472 305.131 34.3767C309.738 30.7268 316.012 28.9018 323.955 28.9018C334.598 28.9018 342.58 32.1947 347.902 38.7804C350.205 41.6368 351.754 44.89 352.548 48.5399H335.869C335.313 47.3497 334.598 46.3579 333.724 45.5644C331.262 43.5808 328.006 42.589 323.955 42.589C321.096 42.589 318.991 43.065 317.641 44.0172C316.29 44.89 315.615 46.0008 315.615 47.3497C315.615 47.8258 315.695 48.3018 315.853 48.7779C316.092 49.1746 316.449 49.5714 316.926 49.9681C317.402 50.2855 317.879 50.6029 318.355 50.9202C318.832 51.1583 319.507 51.436 320.381 51.7534C321.254 51.9914 322.009 52.2294 322.644 52.4675C323.359 52.7055 324.273 52.9436 325.385 53.1816C326.496 53.4196 327.45 53.618 328.244 53.7767C329.038 53.9354 330.071 54.1734 331.341 54.4908C332.612 54.7288 333.645 54.9272 334.439 55.0859C346.909 57.863 353.144 64.0123 353.144 73.5337C353.144 78.8499 350.682 83.4519 345.757 87.3399C340.833 91.2278 334.161 93.1718 325.742 93.1718C314.464 93.1718 306.124 89.6012 300.723 82.4601C298.261 79.2069 296.474 75.6364 295.362 71.7485Z" fill="#FFF"/>
<path d="M360.325 91.3865V17H377.004V53.3006H384.152L400.236 30.6871H418.702L399.045 58.6564L420.49 91.3865H401.427L385.939 67.5828H377.004V91.3865H360.325Z" fill="#FFF"/>
<path d="M418.665 30.6871H435.94L447.854 77.1043H452.62L465.725 30.6871H483L458.577 114H441.302L447.854 91.3865H434.749L418.665 30.6871Z" fill="#FFF"/>
<path d="M35.6364 1.69701C35.6364 1.69701 33.9394 -7.5278e-06 31.394 1.52588e-05C28.1006 4.47407e-05 25.6669 2.18701 23.4202 5.71987C9.68051 27.5058 -0.0863935 74.5826 1.95586e-05 74.6667L56 21.2121L35.6364 1.69701Z" fill="#FF61E6"/>
<path d="M76.3636 1.69701C76.3636 1.69701 78.0606 1.52586e-05 80.606 1.52588e-05C83.8994 1.52591e-05 86.3331 2.18701 88.5798 5.71987C102.319 27.5058 112.086 74.5826 112 74.6667L56 21.2121L76.3636 1.69701Z" fill="#FF534E"/>
<path d="M56 21.2121L-3.45428e-05 74.6667C-0.424217 77.2121 28.367 100.478 46.0166 109.473C48.8325 110.898 52.8551 111.974 55.9999 112C59.1665 112.026 63.1915 110.992 65.9833 109.473C83.6329 100.478 112.424 77.2121 112 74.6667L56 21.2121Z" fill="url(#paint0_linear)"/>
</g>
<defs>
<linearGradient id="paint0_linear" x1="8.48482" y1="89.9394" x2="63.6363" y2="34.7879" gradientUnits="userSpaceOnUse">
<stop stop-color="#69008E"/>
<stop offset="1" stop-color="#FF2155"/>
</linearGradient>
<clipPath id="clip0">
<rect width="483" height="114" fill="white"/>
</clipPath>
</defs>
</svg>
